<svg xmlns="http://www.w3.org/2000/svg" width="230.413" height="40" viewBox="0 0 230.413 40">
    <g id="Log_HORBACH_RGB-01" transform="translate(-35 -25)">
        <path d="M229.956,70.783V39.16h-4.926V52.228H214.853V56.3h10.177V70.753h4.926ZM211.224,39.16h-4.661V70.783h4.661V39.16Zm-29.912,15.9c0-7.522,3.215-12.183,8.348-12.183,3.54,0,5.782,1.976,6.549,5.87h4.307C199.956,42.317,196,38.6,189.72,38.6c-8.142,0-13.51,6.49-13.51,16.431s5.369,16.313,13.687,16.313c6.726,0,10.619-4.159,11.091-11.858h-4.454c-.472,5.015-2.8,7.64-6.785,7.64-5.221,0-8.437-4.631-8.437-12.065Zm-11.77,15.723h5.074l-10.8-31.711h-4.749L148.3,70.783h5.015l2.36-7.4h11.5l2.36,7.4Zm-3.6-11.622h-8.968l4.454-14.218,4.513,14.218Zm-26.637-5.31c3.54-1.091,5.162-3.215,5.162-6.785a7.1,7.1,0,0,0-4.867-7.109c-1.711-.619-3.54-.8-7.522-.8h-7.2V70.783h6.549c5.546,0,7.05-.147,9.2-.8a8.336,8.336,0,0,0,5.6-8.142c-.059-4.277-2.3-6.844-6.932-7.994Zm-6.873-1.5h-2.8V43.2h2.507c5.723,0,7.493,1.032,7.493,4.454s-1.947,4.69-7.2,4.69Zm8.673,9.2a4.768,4.768,0,0,1-2.36,4.513c-1.239.56-2.566.708-6.165.708h-2.95V56.27h3.038c3.127,0,4.159.088,5.487.56a4.712,4.712,0,0,1,2.95,4.72Zm-20.914,9.233-7.758-13.54c3.982-1.622,6.018-4.543,6.018-8.673a8.662,8.662,0,0,0-4.779-8.112c-2.124-1-4.13-1.268-9.381-1.268H97.507V70.812h4.867V58.069h4.9l7.168,12.743h5.752ZM110.31,53.261c-1.268.472-2.33.619-5.723.619H102.4v-10.5h1.947c4.277,0,5.221.088,6.578.767a4.623,4.623,0,0,1,2.478,4.366,4.749,4.749,0,0,1-3.1,4.749ZM91.578,55c0-9.823-5.487-16.4-13.658-16.4-8.142,0-13.6,6.578-13.6,16.4,0,9.764,5.457,16.342,13.6,16.342,8.171,0,13.628-6.519,13.658-16.342Zm-5.162,0c0,7.434-3.274,12.124-8.5,12.124s-8.5-4.69-8.5-12.124c0-7.493,3.274-12.183,8.5-12.183s8.5,4.69,8.5,12.183ZM53.5,70.783h4.926V39.16H53.5V52.228H43.26V56.3H53.466V70.783Zm-18.5,0h4.661V39.16H35V70.783Z"
              transform="translate(0 -9.588)" fill="#827869"></path>
        <path d="M759.134,97.9a1.5,1.5,0,0,0-1.062.442l-4.13,4.13a1.531,1.531,0,0,0,0,2.153l4.13,4.13a1.5,1.5,0,0,0,2.124,0l4.13-4.13a1.531,1.531,0,0,0,0-2.153l-4.13-4.13a1.5,1.5,0,0,0-1.062-.442"
              transform="translate(-506.553 -51.396)" fill="#d4dc80"></path>
        <path d="M782.372,73.942a1.531,1.531,0,0,1,2.153,0l4.13,4.13a1.531,1.531,0,0,1,0,2.153l-4.13,4.13a1.531,1.531,0,0,1-2.153,0l-4.13-4.13a1.531,1.531,0,0,1,0-2.153l4.13-4.13Z"
              transform="translate(-523.685 -34.193)" fill="#b4c800"></path>
        <path d="M734.834,73.6a1.5,1.5,0,0,0-1.062.442l-4.13,4.13a1.531,1.531,0,0,0,0,2.153l4.13,4.13a1.5,1.5,0,0,0,2.124,0l4.13-4.13a1.531,1.531,0,0,0,0-2.153l-4.13-4.13a1.4,1.4,0,0,0-1.062-.442"
              transform="translate(-489.421 -34.264)" fill="#e9eeb2"></path>
        <path d="M759.234,49.3a1.5,1.5,0,0,0-1.062.442l-4.13,4.13a1.531,1.531,0,0,0,0,2.153l4.13,4.13a1.5,1.5,0,0,0,2.124,0l4.13-4.13a1.531,1.531,0,0,0,0-2.153l-4.13-4.13a1.5,1.5,0,0,0-1.062-.442"
              transform="translate(-506.624 -17.132)" fill="#d4dc80"></path>
        <path d="M734.934,25a1.5,1.5,0,0,0-1.062.442l-4.13,4.13a1.531,1.531,0,0,0,0,2.153l4.13,4.13a1.5,1.5,0,0,0,2.124,0l4.13-4.13a1.531,1.531,0,0,0,0-2.153L736,25.442A1.448,1.448,0,0,0,734.934,25"
              transform="translate(-489.492)" fill="#e9eeb2"></path>
        <path d="M734.734,122.3a1.5,1.5,0,0,0-1.062.442l-4.13,4.13a1.531,1.531,0,0,0,0,2.153l4.13,4.13a1.5,1.5,0,0,0,2.124,0l4.13-4.13a1.531,1.531,0,0,0,0-2.153l-4.13-4.13a1.4,1.4,0,0,0-1.062-.442"
              transform="translate(-489.351 -68.598)" fill="#e9eeb2"></path>
    </g>
</svg>