<svg xmlns="http://www.w3.org/2000/svg" xmlns:xlink="http://www.w3.org/1999/xlink" width="1047" zoomAndPan="magnify" viewBox="0 0 785.25 656.249984" height="875" preserveAspectRatio="xMidYMid meet" version="1.0"><defs><clipPath id="e13bc3cd79"><path d="M 504 161 L 676 161 L 676 333 L 504 333 Z M 504 161 " clip-rule="nonzero"/></clipPath><clipPath id="4b1453b99c"><path d="M 513.984375 152.746094 L 683.902344 171.550781 L 665.101562 341.46875 L 495.179688 322.667969 Z M 513.984375 152.746094 " clip-rule="nonzero"/></clipPath><clipPath id="0ba1f6bd4a"><path d="M 598.941406 162.148438 C 552.019531 156.957031 509.773438 190.785156 504.582031 237.707031 C 499.390625 284.628906 533.21875 326.875 580.140625 332.070312 C 627.0625 337.261719 669.308594 303.433594 674.5 256.511719 C 679.695312 209.585938 645.863281 167.339844 598.941406 162.148438 Z M 598.941406 162.148438 " clip-rule="nonzero"/></clipPath></defs><path stroke-linecap="butt" transform="matrix(1.519453, -0.0254578, 0.0254578, 1.519453, 175.527592, 141.694211)" fill="none" stroke-linejoin="miter" d="M 32.220251 142.378217 C 42.436734 142.377144 48.791111 142.419338 51.288522 142.504885 C 68.04785 143.112175 80.71809 147.643449 89.296714 156.096092 C 97.898426 164.551693 102.198213 175.824826 102.198559 189.920675 C 102.196871 199.38129 100.257591 207.71941 96.378148 214.934993 C 92.516653 222.153448 86.758426 227.80534 79.103383 231.89581 C 71.466674 235.96602 62.154476 238.000343 51.161605 238.001261 L 17.275573 237.999098 C 15.974713 238.00044 15.020714 237.706807 14.411007 237.118155 C 13.824733 236.511901 13.530372 235.51463 13.530451 234.128955 L 13.530564 145.587112 C 13.530026 144.391668 13.782998 143.562959 14.284338 143.100897 C 14.809154 142.618662 15.723234 142.379466 17.021525 142.37808 Z M 44.082396 162.611415 C 43.642822 162.609192 43.316793 162.734841 43.106878 162.988407 C 42.897007 163.239402 42.79142 163.710666 42.792644 164.404809 L 42.792495 215.816201 C 42.792341 216.592588 42.917245 217.116559 43.169734 217.390726 C 43.422611 217.641762 43.89353 217.76791 44.58506 217.769213 L 45.497706 217.769079 C 53.994315 217.76747 60.455893 215.554274 64.879868 211.129449 C 69.306456 206.702097 71.519652 199.507442 71.5195 189.542915 C 71.519613 180.943501 69.842665 174.544896 66.486043 170.349626 C 63.150326 166.13414 58.262447 163.723077 51.82245 163.113866 Z M 112.892075 145.336605 C 112.891691 143.364774 113.710315 142.378438 115.347945 142.377597 L 184.947913 142.379129 C 186.477557 142.37905 187.243969 143.281397 187.244625 145.083557 L 187.11759 160.030787 C 187.117172 162.357378 186.007596 163.523938 183.783852 163.522672 L 145.113476 163.522615 C 143.141646 163.522999 142.156366 164.329155 142.154982 165.946182 L 142.154063 176.895318 C 142.155058 177.756562 142.364934 178.425922 142.783606 178.90854 C 143.225408 179.391545 143.792096 179.632414 144.483626 179.633717 L 167.672521 179.631471 C 169.477209 179.633429 170.378215 180.481473 170.378023 182.180786 L 170.38013 198.166222 C 170.378673 199.63414 169.602821 200.369252 168.050047 200.368944 L 144.200506 200.367833 C 143.611779 200.368253 143.120359 200.545119 142.721018 200.903485 C 142.342626 201.239066 142.155656 201.657549 142.154927 202.161418 L 142.154736 215.061824 C 142.156003 215.753398 142.261207 216.225622 142.470349 216.478496 C 142.679534 216.7288 143.088727 216.856485 143.698014 216.85641 L 185.576785 216.856235 C 187.463802 216.85443 188.408974 217.674935 188.407288 219.309952 L 188.408936 235.16941 C 188.407404 236.028041 188.146434 236.720363 187.620929 237.243719 C 187.118857 237.749472 186.353713 237.998877 185.32537 237.999643 L 116.386091 237.998897 C 115.08523 238.000239 114.171664 237.748417 113.64792 237.246043 C 113.145125 236.720883 112.894054 235.901724 112.892096 234.791094 Z M 256.318918 168.020911 C 254.263841 165.778139 252.050915 164.057171 249.680051 162.863147 C 247.329791 161.666898 243.923207 161.067377 239.455072 161.06964 C 234.986981 161.069333 231.672596 161.718209 229.511877 163.018837 C 227.372063 164.299249 226.302462 165.84182 226.300548 167.643937 C 226.302847 170.728968 229.05053 172.90879 234.546082 174.188588 L 255.942308 179.758138 C 263.765718 181.729928 269.648908 185.19114 273.594447 190.141817 C 277.558321 195.072234 279.539185 200.977191 279.539608 207.85673 C 279.541106 214.211839 277.862124 219.749549 274.505232 224.469901 C 271.150911 229.190297 266.356866 232.840245 260.125666 235.419787 C 253.897037 237.999372 246.617989 239.288799 238.29105 239.29068 C 228.830436 239.288992 220.208328 237.728007 212.424813 234.602584 C 204.664817 231.454418 199.283541 227.343484 196.283599 222.267255 C 195.842986 221.406358 195.624883 220.76771 195.624191 220.348654 C 195.623196 219.48741 196.096379 218.711236 197.038599 218.020045 L 210.318643 208.86417 C 211.26171 208.275826 212.122723 207.981753 212.89654 207.981864 C 213.842597 207.98229 214.617794 208.360335 215.227272 209.116087 C 218.140671 212.913165 221.098589 215.587538 224.098455 217.139162 C 227.119227 218.67057 231.116879 219.436814 236.086313 219.435237 C 240.911736 219.436389 244.719925 218.775221 247.508266 217.454258 C 250.299566 216.110208 251.692682 214.285125 251.692757 211.979094 C 251.694485 210.341507 251.000937 208.926215 249.617296 207.730736 C 248.254559 206.51504 246.238903 205.602046 243.575424 204.994409 L 223.972805 200.241583 C 216.253392 198.353802 210.119667 194.808697 205.56649 189.606182 C 201.013314 184.403667 198.738179 178.416655 198.738604 171.639963 C 198.739867 166.040723 200.363342 160.900562 203.616698 156.222178 C 206.888044 151.544096 211.523388 147.852927 217.522775 145.146101 C 223.542679 142.44219 230.506595 141.088355 238.417048 141.087208 C 246.155218 141.088316 253.329694 142.357681 259.937907 144.895259 C 266.546465 147.412277 271.318047 150.78031 274.255269 154.996832 C 274.841271 155.772757 275.134927 156.505221 275.136151 157.199364 C 275.134044 157.785478 274.841945 158.341024 274.254715 158.865917 L 260.188597 169.06009 C 259.769083 169.394981 259.298352 169.564481 258.773922 169.563407 C 258.185195 169.563826 257.368588 169.048833 256.318918 168.020911 Z M 316.643688 142.377295 C 318.196462 142.377602 318.970585 143.280079 318.971198 145.084809 L 318.970815 234.256501 C 318.970779 235.639605 318.625357 236.615873 317.93202 237.182693 C 317.241641 237.726424 316.170181 237.998976 314.722781 238.000434 L 293.202401 237.999785 C 291.90154 238.001127 290.987974 237.749305 290.464273 237.244361 C 289.961478 236.7192 289.710364 235.902612 289.708449 234.789412 L 289.708428 145.334922 C 289.70881 144.391435 289.918895 143.667411 290.338638 143.16542 C 290.779329 142.640643 291.387868 142.378331 292.164255 142.378485 Z M 316.643688 142.377295 " stroke="#ffffff" stroke-width="4.833" stroke-opacity="1" stroke-miterlimit="4"/><path stroke-linecap="butt" transform="matrix(1.392672, -0.0207752, 0.0207752, 1.392672, 87.467591, 181.622494)" fill="none" stroke-linejoin="miter" d="M 187.12854 14.377363 C 188.407523 14.379613 189.41525 14.70318 190.148835 15.353632 C 190.882754 15.981649 191.251204 16.853847 191.251464 17.964575 C 191.25176 18.320797 191.168181 18.846864 190.997965 19.53993 L 164.82011 106.790064 C 164.399609 107.90293 163.846093 108.719302 163.153869 109.244704 C 162.459176 109.74763 161.47372 109.999391 160.194695 109.999945 L 142.417476 110.001215 C 139.921163 110.000439 138.369198 108.931075 137.761625 106.790318 L 124.355267 61.418065 C 124.105388 60.306418 123.810771 59.749466 123.47418 59.750054 C 123.202085 59.751605 122.813892 60.390932 122.312362 61.670881 L 109.034244 106.790921 C 108.675478 107.901903 108.130333 108.721204 107.396046 109.245979 C 106.684528 109.748654 105.676637 110.00008 104.375179 110.0003 L 85.969686 110.000612 C 84.668228 110.000831 83.673476 109.747579 82.979779 109.243576 C 82.308809 108.720277 81.754443 107.901403 81.313835 106.789715 L 55.040814 19.5397 C 54.852004 18.846888 54.75607 18.320948 54.755774 17.964726 C 54.755514 16.853998 55.124704 15.984389 55.857776 15.353012 C 56.591099 14.704809 57.597315 14.377627 58.879143 14.377115 L 80.148389 14.37745 C 81.449847 14.37723 82.391779 14.598841 82.979835 15.039562 C 83.587855 15.458142 84.018038 16.14053 84.270427 17.083923 L 97.957604 64.878155 C 98.208403 65.928108 98.503522 66.45141 98.837268 66.453584 C 99.112167 66.452075 99.330476 66.107529 99.500691 65.414463 L 113.028654 17.083781 C 113.448229 15.280905 114.822046 14.378601 117.150064 14.37967 L 135.179706 14.379361 C 136.481164 14.379142 137.425942 14.59799 138.011193 15.038669 C 138.619213 15.457249 139.049397 16.139637 139.301785 17.08303 L 153.493274 66.043192 C 153.66216 66.567415 153.91287 66.871275 154.248207 66.954814 C 154.605977 67.038687 154.825208 66.820373 154.908787 66.294306 L 168.059971 17.085692 C 168.479588 15.280013 169.853405 14.377708 172.184226 14.37882 Z M 201.170416 17.335595 C 201.171781 15.363799 201.988685 14.377456 203.626693 14.379452 L 273.226514 14.377105 C 274.757962 14.377512 275.521432 15.280846 275.522576 17.084388 L 275.397801 32.029624 C 275.396731 34.357641 274.285467 35.52191 272.061207 35.522388 L 233.390593 35.523319 C 231.418798 35.521953 230.433471 36.329079 230.434614 37.944695 L 230.433946 48.894857 C 230.432321 49.755924 230.643899 50.426637 231.063032 50.909716 C 231.50464 51.390325 232.070427 51.631568 232.763199 51.633488 L 255.951002 51.63159 C 257.754502 51.63325 258.656216 52.482549 258.658909 54.182335 L 258.658908 70.164425 C 258.656618 71.634137 257.882739 72.368685 256.328857 72.367944 L 232.47913 72.368382 C 231.890115 72.36801 231.399417 72.545811 230.998623 72.901659 C 230.623361 73.238254 230.434769 73.658974 230.432889 74.161016 L 230.433953 87.063386 C 230.434879 87.753396 230.537217 88.226139 230.74942 88.478937 C 230.95886 88.728889 231.36648 88.855578 231.975125 88.856243 L 273.854494 88.855496 C 275.742163 88.855606 276.686402 89.674687 276.687252 91.309933 L 276.686288 107.168594 C 276.687509 108.0269 276.424711 108.721389 275.900826 109.243693 C 275.396821 109.749464 274.630178 109.998879 273.603577 110.000394 L 204.662918 110.001354 C 203.364306 109.998811 202.450835 109.749576 201.925435 109.245278 C 201.422761 108.721685 201.171336 107.901721 201.171076 106.790992 Z M 201.170416 17.335595 " stroke="#ffffff" stroke-width="4.833" stroke-opacity="1" stroke-miterlimit="4"/><g clip-path="url(#e13bc3cd79)"><g clip-path="url(#4b1453b99c)"><g clip-path="url(#0ba1f6bd4a)"><path fill="#d6412b" d="M 513.984375 152.746094 L 683.902344 171.550781 L 665.101562 341.46875 L 495.179688 322.667969 Z M 513.984375 152.746094 " fill-opacity="1" fill-rule="nonzero"/></g></g></g></svg>